<svg version="1.0" xmlns="http://www.w3.org/2000/svg" width="682.667" height="682.667" viewBox="0 0 512 512"><path d="M355 112.7c-6.4 2.3-16.1 12.2-18.3 18.7-2.4 6.9-2.2 16.2.4 23.3 2 5.3 4.7 8.4 33.7 37.5l31.6 31.8-189.5.2-189.4.3-5 2.5c-6.4 3.1-12.4 9.1-15.5 15.5-3.4 6.9-3.5 19.8-.2 26.5 3.4 7.1 7.5 11.3 14.4 15.1l6.3 3.4 189.4.3 189.5.2-31.6 31.8c-29 29.1-31.7 32.2-33.7 37.5-2.6 7.1-2.8 16.4-.4 23.3 2.3 6.7 12 16.4 18.7 18.7 6.9 2.4 16.2 2.2 23.3-.4 5.5-2 9.1-5.4 66.9-63.3 49-49 61.6-62.1 63.4-66.1 3.4-7.2 3.4-19.9.1-27-1.9-4-15-17.6-63.5-66.1-57.8-57.9-61.4-61.3-66.9-63.3-6.9-2.5-17.1-2.7-23.7-.4z"/></svg>