<svg width="1080" height="1080" fill="none" xmlns="http://www.w3.org/2000/svg"><path fill="#fff" d="M0 0h1080v1080H0z"/><path d="M724.417 649.197H540.204v89.463h184.213v-89.463z" fill="#FFCCB3"/><path d="M539.119 704.351c-21.605 21.257-30.105 125.944-28.966 184.616h257.17s-.463-127.947-19.96-171.063c-17.93-39.65-47.734 18.839-208.244-13.553z" fill="#1F2D49"/><path d="M693.464 242.049s21.338-24.339 62.756-27.88c41.419-3.541 53.812 32.736 52.042 55.024-1.771 22.288-34.23 68.321-27.738 87.797 6.491 19.476-24.035 10.033-27.362-28.918-3.327-38.952-15.721-93.247-49.361-73.772l-10.337-12.251z" fill="#080B09"/><path d="M699.94 230.656s5.103-2.956 8.799 3.942c3.695 6.898 10.597 20.904 1.849 24.618-8.747 3.713-10.648-28.56-10.648-28.56zM581.626 454.977s33.088 37.136 22.083 49.048c-21.794 24.482-79.76 70.495-98.754 85.726a7.832 7.832 0 01-11.007-1.505l-44.913-59.049a11.241 11.241 0 011.541-15.37l86.996-75.018 44.054 16.168z" fill="#1C85E8"/><path d="M529.392 502.189s-41.234 24.508-44.95 73.751l8.212 10.549s5.156 8.986 12.302 3.262l40.199-32.201-15.763-55.361z" fill="#0E66AF"/><path d="M567.946 520.857c25.72 0 46.571-20.85 46.571-46.57 0-25.721-20.851-46.571-46.571-46.571-25.721 0-46.571 20.85-46.571 46.571 0 25.72 20.85 46.57 46.571 46.57z" fill="#1C85E8"/><path d="M446.676 620.27l-40.7-53.887 38.529-29.912 6.038-4.862 42.217 55.209-7.351 5.287-38.733 28.165z" fill="#FFCCB3"/><path d="M485.409 592.105c-10.902-14.596-31.404-43.123-40.904-55.634l6.039-4.862 42.11 54.881-7.245 5.615z" fill="#FF967C"/><path d="M425.707 627.745c18.671 0 33.807-15.136 33.807-33.807 0-18.671-15.136-33.807-33.807-33.807-18.671 0-33.807 15.136-33.807 33.807 0 18.671 15.136 33.807 33.807 33.807z" fill="#FFCCB3"/><path d="M454.333 575.752S345.277 415.595 340.235 401.994c-4.905-13.283-30.665 18.68-30.665 18.68l84.404 184.15 60.359-29.072zm150.138-223.345l-13.111 91.404s-3.441 12.132 11.833 13.969c15.274 1.836 47.841-2.267 59.473-14.663 11.631-12.395 7.562-18.536 7.562-18.536l-24.668-99.21-41.089 27.036z" fill="#FFCCB3"/><path d="M602.646 364.235l32.069-11.327-39.73 58.884 7.661-47.557z" fill="#FF967C"/><path d="M568.187 239.506s-27.512 64.645-13.174 108.951c9.351 28.894 29.716 34.089 76.354 12.436 42.762-19.854 53.869-34.874 53.869-34.874l6.307-72.062s-95.415-72.07-123.356-14.451z" fill="#FFCCB3"/><path d="M591.128 417.531s-35.243 9.792-42.396 15.514c-7.152 5.722-12.354 52.231-22.925 75.204-15.65 34.01-25.783 52.103.509 89.478 15.858 22.543 10.466 79.852 10.466 79.852h193.065c-5.849-112.687 20.036-245.526 20.036-245.526l-87.135-20.078c-19.646 3.387-71.62 5.556-71.62 5.556z" fill="#1C85E8"/><path d="M584.965 419.349s2.606-17.713 10.936-18.96c8.329-1.248 59.226-8.903 67.142-5.57 7.917 3.333 17.5 24.53 17.5 24.53s-16.25 39.635-39.583 41.719c-23.332 2.083-63.492-5.11-59.245-19.846 4.246-14.737 3.25-21.873 3.25-21.873z" fill="#1C85E8"/><path d="M569.114 424.734s5.631 34.185 36.208 33.645c30.577-.539 75.009-46.404 75.009-46.404" stroke="#fff" stroke-width="1.357" stroke-miterlimit="10"/><path d="M707.651 474.286s-30.384 20.088-21.434 40.358c10.064 22.791 9.977 81.488-18.905 85.167-51.536 6.563-29.144 15.575-5.316 21.334 23.828 5.758 14.073 5.764 14.073 30.45 0 17.569 55.213 32.802 53.778 18.606-9.601-94.979 30.307-155.12-22.196-195.915z" fill="#0E66AF"/><path d="M565.736 334.615l25.593 1.266a15.08 15.08 0 01-2.734 5.205c-2.27 2.781-6.236 5.426-13.088 4.733-4.326-.829-6.786-3.738-8.179-6.492a18.153 18.153 0 01-1.592-4.712z" fill="#E56441" stroke="#E56441"/><path d="M567.424 292.119c1.07-3.965-.244-7.767-2.935-8.493-2.69-.726-5.738 1.9-6.807 5.865-1.07 3.965.244 7.767 2.934 8.493 2.691.726 5.739-1.9 6.808-5.865zm39.593 11.29c1.07-3.965-.244-7.767-2.934-8.493-2.691-.726-5.739 1.9-6.808 5.865-1.07 3.965.244 7.767 2.935 8.493 2.69.726 5.738-1.9 6.807-5.865zm-49.605-31.769l20.127 5.785a1.475 1.475 0 001.685-.968 4.748 4.748 0 00-4.23-5.408l-17.288-1.819c-1.325-.357-1.951 1.963-.294 2.41zm68.811 17.205l-27.294-5.586a6.084 6.084 0 013.221-3.73 6.087 6.087 0 014.928-.116l19.924 7.864c.662.179.215 1.836-.779 1.568z" fill="#080B09"/><path d="M579.596 293.253l-12.946 17.434 4.875 6.893" stroke="#E56441" stroke-width="2.239" stroke-linecap="round"/><path d="M603.673 483.46c2.506 0 4.538-5.615 4.538-12.54 0-6.926-2.032-12.54-4.538-12.54-2.507 0-4.539 5.614-4.539 12.54 0 6.925 2.032 12.54 4.539 12.54z" fill="#fff"/><path d="M812.882 655.992l-67.305 5.515-11.489-48.777-13.841-37.508 70.83-8.477 8.856 41.978 12.949 47.269z" fill="#FFCCB3"/><path d="M793.468 578.081l2.483 11.771-69.752 1.501-4.589-12.434 71.858-.838z" fill="#FF967C"/><path d="M738.302 523.732c25.721 0 46.571-20.85 46.571-46.57 0-25.721-20.85-46.571-46.571-46.571-25.72 0-46.571 20.85-46.571 46.571 0 25.72 20.851 46.57 46.571 46.57z" fill="#1C85E8"/><path d="M729.32 455.267s49.082-8.057 53.249 7.616c9.005 31.516 20.073 82.111 22.765 106.307a7.822 7.822 0 01-4.215 7.649 7.83 7.83 0 01-2.95.841l-73.92 6.309a11.236 11.236 0 01-12.156-9.531l-20.018-90.645 37.245-28.546z" fill="#1C85E8"/><path d="M585.34 233.361s1.741 31.399 28.342 46.616c0 0 7.778 24.082 36.809 29.746 0 0-1.714-22.135 12.122-21.901 23.497.398 11.94 36.039-3.946 41.887-10.795 3.973-17.298 18.078-1.272 50.221 36.796-13.125 62.674-66.128 52.529-124.934-8.125-47.091-66.506-62.47-78.501-60.936 0 0-49.813-17.208-76.042 29.988-22.422 40.346-1.482 64.425-1.482 64.425l11.95-35.908s4.991 3.505 19.491-19.204z" fill="#080B09"/><path d="M813.13 772.351H634.865a14.153 14.153 0 01-14.04-12.392L604.371 628.64a14.148 14.148 0 0114.04-15.91h211.173a14.145 14.145 0 0113.522 9.98c.591 1.917.768 3.939.519 5.93l-16.454 131.319a14.154 14.154 0 01-14.041 12.392z" fill="url(#paint0_linear)"/><path d="M724.416 702.604c6.911 0 12.513-5.602 12.513-12.512 0-6.911-5.602-12.513-12.513-12.513-6.91 0-12.512 5.602-12.512 12.513 0 6.91 5.602 12.512 12.512 12.512z" fill="#fff"/><path d="M314.205 431.195l-10.742-20.609s-37.984-21.728-42.386-29.583c-4.403-7.857-6.133-30.287 1.661-36.03 0 0-30.306-22.762-25.147-27.374 5.143-4.946 64.683 39.285 64.683 39.285s-7.248-32.586 3.767-34.113a114.332 114.332 0 0015.118 35.574c11.597 17.933 13.026 33.993 13.026 33.993l13.669 26.234-33.649 12.623z" fill="#FFCCB3"/><path d="M264.78 345.549l18.353 11.566m-21.089 1.666l15.577 9.682m-12.55 4.623l10.39 6.566" stroke="#FF967C" stroke-width="2.872" stroke-linecap="round" stroke-linejoin="round"/><path d="M776.831 766.992s9.422.783 8.003 5.537c-1.419 4.755-9.831 2.56-17.512 7.315-7.68 4.754-38.046 8.147-53.213 5.62-15.168-2.528-19.381-18.472-19.381-18.472s-2.536-15.125 24.256-16.678c26.792-1.554 39.26 7.043 43.92 16.362l13.927.316z" fill="#FFCCB3"/><path d="M706.118 752.664l5.786 15.563m9.2-18.096l5.786 15.563m10.039-14.246l5.786 15.563" stroke="#E56441" stroke-width="2.239" stroke-linecap="round"/><path d="M268.032 755.681v20.934" stroke="#fff" stroke-width="2.428" stroke-miterlimit="10"/><defs><linearGradient id="paint0_linear" x1="718.036" y1="612.351" x2="742.652" y2="952.979" gradientUnits="userSpaceOnUse"><stop stop-color="#fff"/><stop offset="1" stop-color="#94B9FF"/></linearGradient></defs></svg>